# xmcd
#
# Track frame offsets:
# 150
# 15854
# 33897
# 52850
# 70637
# 90594
# 107575
# 129987
# 140462
# 160823
# 180899
# 199284
# 213827
# 224576
# 237243
# 252626
# 272164
# 301491
#
# Disc length: 4287 seconds
#
# Revision: 1
# Processed by: cddbd v1.5.2PL0 Copyright (c) Steve Scherf et al.
# Submitted via: CedeCatalogueitor 2.6.0.6 http://personales.ya.com/cdcatalogueitor
#
DISCID=f010bd12
DTITLE=Rick Moore And Jimmy Nalls - Slow Burnin' Fire
DYEAR=2008
DGENRE=Blues
TTITLE0=Talk To Me Baby
TTITLE1=Swingin' Her Stuff
TTITLE2=Make Lovin' You My Business
TTITLE3=Good Woman Bad
TTITLE4=Let Me Down Easy
TTITLE5=Chicken House Blues
TTITLE6=Tangled Up In Your Love
TTITLE7=Whole Lotta Woman
TTITLE8=Slow Burnin' Fire
TTITLE9=Muddy Water Fever
TTITLE10=Your Love Is Working Overtime
TTITLE11=Radio Station
TTITLE12=House Rockin'
TTITLE13=House Rockin' (live)
TTITLE14=Talk To Me (live)
TTITLE15=Good Woman Bad (live)
TTITLE16=Make Lovin' You My Business (live)
TTITLE17=Swingin' Her Stuff (live)
EXTD=
EXTT0=
EXTT1=
EXTT2=
EXTT3=
EXTT4=
EXTT5=
EXTT6=
EXTT7=
EXTT8=
EXTT9=
EXTT10=
EXTT11=
EXTT12=
EXTT13=
EXTT14=
EXTT15=
EXTT16=
EXTT17=
PLAYORDER=
